<svg width="332" height="257" xmlns="http://www.w3.org/2000/svg" xmlns:xlink="http://www.w3.org/1999/xlink" xml:space="preserve" overflow="hidden"><g transform="translate(-162 -261)"><path d="M282.486 68.0389 281.774 242.411C281.774 245.083 279.992 246.863 277.499 246.863L102.771 246.863C100.099 246.863 98.3182 245.083 98.3182 242.589 98.3182 240.273 100.099 238.848 102.771 238.848L198.595 238.848 268.95 239.383 241.699 212.666 46.6655 17.6331C45.7748 16.7426 45.4187 15.6738 45.4187 14.6052 45.4187 12.1117 47.1998 10.5086 49.5153 10.5086 50.5839 10.5086 51.6526 10.8649 52.5432 11.7554L247.576 206.789 273.937 233.683 273.759 181.318 273.759 68.0389C273.759 65.3673 275.54 63.5861 278.033 63.5861 280.705 63.5861 282.486 65.3673 282.486 68.0389Z" stroke="#FFFFFF" stroke-width="8.29028" fill="#FFFFFF" transform="matrix(1.00117 0 0 -1 162 518.372)"/></g></svg>